<svg xmlns="http://www.w3.org/2000/svg" xmlns:xlink="http://www.w3.org/1999/xlink" width="500" zoomAndPan="magnify" viewBox="0 0 375 374.999991" height="500" preserveAspectRatio="xMidYMid meet" version="1.0"><defs><g/><clipPath id="ebafd56c12"><path d="M 12 142.070312 L 136.5 142.070312 L 136.5 196 L 12 196 Z M 12 142.070312 " clip-rule="nonzero"/></clipPath><clipPath id="8525ec7712"><path d="M 0 195 L 124 195 L 124 247.820312 L 0 247.820312 Z M 0 195 " clip-rule="nonzero"/></clipPath></defs><g clip-path="url(#ebafd56c12)"><path fill="#d786f4" d="M 12.652344 195.042969 L 33.113281 195.042969 L 49.226562 174.664062 L 28.765625 174.664062 Z M 115.804688 142.070312 L 72.984375 195.042969 L 93.445312 195.042969 L 136.265625 142.070312 Z M 74.804688 155.378906 L 42.820312 195.042969 L 63.28125 195.042969 L 95.265625 155.378906 L 74.804688 155.378906 " fill-opacity="1" fill-rule="nonzero"/></g><g clip-path="url(#8525ec7712)"><path fill="#f6f6f6" d="M 123.613281 195.042969 L 103.152344 195.042969 L 87.039062 215.417969 L 107.503906 215.417969 Z M 20.460938 248.015625 L 63.28125 195.042969 L 42.820312 195.042969 L 0 248.015625 Z M 61.460938 234.707031 L 93.445312 195.042969 L 72.984375 195.042969 L 41 234.707031 L 61.460938 234.707031 " fill-opacity="1" fill-rule="nonzero"/></g><g fill="#d786f4" fill-opacity="1"><g transform="translate(142.970986, 186.851027)"><g><path d="M 30.140625 -43.421875 L 41.34375 -43.421875 L 25.84375 -20.328125 L 25.84375 0 L 16.59375 0 L 16.59375 -20.328125 L 1.109375 -43.421875 L 12.3125 -43.421875 L 21.25 -30.078125 Z M 30.140625 -43.421875 "/></g></g></g><g fill="#d786f4" fill-opacity="1"><g transform="translate(184.195751, 186.851027)"><g><path d="M 34.546875 -30.375 L 34.546875 0 L 27.25 0 L 26.40625 -3.25 C 25.21875 -1.65625 23.796875 -0.59375 22.140625 -0.0625 C 20.484375 0.46875 18.757812 0.734375 16.96875 0.734375 C 14.800781 0.734375 12.804688 0.316406 10.984375 -0.515625 C 9.171875 -1.359375 7.585938 -2.503906 6.234375 -3.953125 C 4.890625 -5.398438 3.835938 -7.09375 3.078125 -9.03125 C 2.328125 -10.96875 1.953125 -13.039062 1.953125 -15.25 C 1.953125 -17.457031 2.328125 -19.53125 3.078125 -21.46875 C 3.835938 -23.40625 4.890625 -25.097656 6.234375 -26.546875 C 7.585938 -27.992188 9.171875 -29.132812 10.984375 -29.96875 C 12.804688 -30.8125 14.800781 -31.234375 16.96875 -31.234375 C 18.925781 -31.234375 20.722656 -30.925781 22.359375 -30.3125 C 23.992188 -29.707031 25.34375 -28.726562 26.40625 -27.375 L 27.25 -30.375 Z M 26.09375 -15.125 C 26.09375 -16.71875 25.878906 -18.054688 25.453125 -19.140625 C 25.023438 -20.222656 24.453125 -21.097656 23.734375 -21.765625 C 23.015625 -22.441406 22.175781 -22.929688 21.21875 -23.234375 C 20.257812 -23.546875 19.226562 -23.703125 18.125 -23.703125 C 17.019531 -23.703125 15.988281 -23.476562 15.03125 -23.03125 C 14.070312 -22.582031 13.222656 -21.976562 12.484375 -21.21875 C 11.753906 -20.46875 11.1875 -19.570312 10.78125 -18.53125 C 10.375 -17.488281 10.171875 -16.394531 10.171875 -15.25 C 10.171875 -14.0625 10.375 -12.957031 10.78125 -11.9375 C 11.1875 -10.914062 11.753906 -10.023438 12.484375 -9.265625 C 13.222656 -8.515625 14.070312 -7.914062 15.03125 -7.46875 C 15.988281 -7.019531 17.019531 -6.796875 18.125 -6.796875 C 20.332031 -6.796875 22.203125 -7.476562 23.734375 -8.84375 C 25.265625 -10.21875 26.050781 -12.3125 26.09375 -15.125 Z M 26.09375 -15.125 "/></g></g></g><g fill="#d786f4" fill-opacity="1"><g transform="translate(220.213826, 186.851027)"><g><path d="M 18.5625 -30.375 C 19.707031 -30.375 20.972656 -30.210938 22.359375 -29.890625 C 23.742188 -29.566406 25.046875 -28.953125 26.265625 -28.046875 C 27.492188 -27.148438 28.523438 -25.90625 29.359375 -24.3125 C 30.203125 -22.71875 30.625 -20.65625 30.625 -18.125 L 30.625 0 L 22.109375 0 L 22.109375 -17.828125 C 22.109375 -18.765625 21.953125 -19.554688 21.640625 -20.203125 C 21.335938 -20.859375 20.929688 -21.378906 20.421875 -21.765625 C 19.910156 -22.160156 19.328125 -22.445312 18.671875 -22.625 C 18.023438 -22.8125 17.375 -22.90625 16.71875 -22.90625 C 16.1875 -22.90625 15.601562 -22.8125 14.96875 -22.625 C 14.34375 -22.445312 13.753906 -22.148438 13.203125 -21.734375 C 12.648438 -21.328125 12.1875 -20.796875 11.8125 -20.140625 C 11.445312 -19.492188 11.265625 -18.722656 11.265625 -17.828125 L 11.265625 0 L 2.8125 0 L 2.8125 -30.375 L 10.046875 -30.375 L 11.265625 -28.046875 C 12.242188 -28.742188 13.347656 -29.304688 14.578125 -29.734375 C 15.804688 -30.160156 17.132812 -30.375 18.5625 -30.375 Z M 18.5625 -30.375 "/></g></g></g><g fill="#d786f4" fill-opacity="1"><g transform="translate(252.127799, 186.851027)"><g><path d="M 19.59375 -17.765625 L 32.40625 0 L 22.296875 0 L 14.265625 -12.125 L 11.265625 -8.875 L 11.265625 0 L 2.8125 0 L 2.8125 -44.71875 L 11.265625 -44.71875 L 11.265625 -19.90625 L 21.125 -30.375 L 31.421875 -30.375 Z M 19.59375 -17.765625 "/></g></g></g><g fill="#d786f4" fill-opacity="1"><g transform="translate(283.735489, 186.851027)"><g><path d="M 17.765625 -31.234375 C 20.046875 -31.234375 22.125 -30.773438 24 -29.859375 C 25.882812 -28.941406 27.5 -27.738281 28.84375 -26.25 C 30.195312 -24.757812 31.238281 -23.039062 31.96875 -21.09375 C 32.707031 -19.15625 33.078125 -17.164062 33.078125 -15.125 C 33.078125 -13.90625 32.910156 -12.597656 32.578125 -11.203125 L 10.90625 -11.203125 C 11.71875 -9.816406 12.878906 -8.644531 14.390625 -7.6875 C 15.898438 -6.726562 17.535156 -6.25 19.296875 -6.25 C 21.046875 -6.25 22.582031 -6.390625 23.90625 -6.671875 C 25.238281 -6.960938 26.5 -7.332031 27.6875 -7.78125 L 30.5 -2.578125 C 28.988281 -1.515625 27.265625 -0.695312 25.328125 -0.125 C 23.390625 0.445312 21.316406 0.734375 19.109375 0.734375 C 16.703125 0.734375 14.457031 0.316406 12.375 -0.515625 C 10.289062 -1.359375 8.472656 -2.492188 6.921875 -3.921875 C 5.367188 -5.347656 4.144531 -7.039062 3.25 -9 C 2.351562 -10.957031 1.90625 -13.039062 1.90625 -15.25 C 1.90625 -17.414062 2.3125 -19.46875 3.125 -21.40625 C 3.9375 -23.34375 5.066406 -25.035156 6.515625 -26.484375 C 7.972656 -27.941406 9.660156 -29.097656 11.578125 -29.953125 C 13.492188 -30.804688 15.554688 -31.234375 17.765625 -31.234375 Z M 24.6875 -17.765625 C 24.195312 -19.515625 23.316406 -20.941406 22.046875 -22.046875 C 20.785156 -23.148438 19.359375 -23.703125 17.765625 -23.703125 C 16.128906 -23.703125 14.644531 -23.148438 13.3125 -22.046875 C 11.988281 -20.941406 11.082031 -19.515625 10.59375 -17.765625 Z M 24.6875 -17.765625 "/></g></g></g><g fill="#d786f4" fill-opacity="1"><g transform="translate(318.957244, 186.851027)"><g><path d="M 3 -44.78125 L 11.453125 -44.78125 L 11.453125 0 L 3 0 Z M 3 -44.78125 "/></g></g></g><g fill="#d786f4" fill-opacity="1"><g transform="translate(331.637068, 186.851027)"><g><path d="M 22.046875 -15.921875 C 24.296875 -14.328125 25.421875 -12.0625 25.421875 -9.125 C 25.421875 -7.78125 25.101562 -6.515625 24.46875 -5.328125 C 23.832031 -4.140625 22.960938 -3.097656 21.859375 -2.203125 C 20.765625 -1.304688 19.476562 -0.601562 18 -0.09375 C 16.53125 0.414062 14.960938 0.671875 13.296875 0.671875 C 12.023438 0.671875 10.785156 0.503906 9.578125 0.171875 C 8.378906 -0.148438 7.269531 -0.59375 6.25 -1.15625 C 5.226562 -1.726562 4.335938 -2.410156 3.578125 -3.203125 C 2.828125 -4.003906 2.269531 -4.894531 1.90625 -5.875 C 2.84375 -6.320312 3.878906 -6.820312 5.015625 -7.375 C 6.160156 -7.925781 7.164062 -8.425781 8.03125 -8.875 C 8.394531 -8.269531 8.960938 -7.710938 9.734375 -7.203125 C 10.515625 -6.691406 11.578125 -6.4375 12.921875 -6.4375 C 14.304688 -6.4375 15.328125 -6.757812 15.984375 -7.40625 C 16.640625 -8.0625 16.96875 -8.675781 16.96875 -9.25 C 16.96875 -9.65625 16.742188 -10.03125 16.296875 -10.375 C 15.847656 -10.726562 15.335938 -11.003906 14.765625 -11.203125 C 13.941406 -11.535156 13.265625 -11.710938 12.734375 -11.734375 C 12.203125 -11.753906 11.59375 -11.863281 10.90625 -12.0625 C 8.695312 -12.59375 7.007812 -13.296875 5.84375 -14.171875 C 4.6875 -15.054688 3.84375 -15.945312 3.3125 -16.84375 C 2.78125 -17.738281 2.484375 -18.59375 2.421875 -19.40625 C 2.359375 -20.226562 2.328125 -20.882812 2.328125 -21.375 C 2.328125 -22.6875 2.613281 -23.929688 3.1875 -25.109375 C 3.757812 -26.296875 4.546875 -27.328125 5.546875 -28.203125 C 6.546875 -29.078125 7.707031 -29.78125 9.03125 -30.3125 C 10.363281 -30.84375 11.785156 -31.109375 13.296875 -31.109375 C 14.554688 -31.109375 15.757812 -30.925781 16.90625 -30.5625 C 18.050781 -30.195312 19.09375 -29.6875 20.03125 -29.03125 C 20.96875 -28.375 21.769531 -27.597656 22.4375 -26.703125 C 23.113281 -25.804688 23.617188 -24.804688 23.953125 -23.703125 L 17.390625 -21.5 C 17.148438 -22.226562 16.648438 -22.816406 15.890625 -23.265625 C 15.140625 -23.722656 14.332031 -23.953125 13.46875 -23.953125 C 12.613281 -23.953125 11.921875 -23.664062 11.390625 -23.09375 C 10.859375 -22.519531 10.59375 -21.945312 10.59375 -21.375 C 10.59375 -20.675781 10.847656 -20.132812 11.359375 -19.75 C 11.867188 -19.363281 12.429688 -19.085938 13.046875 -18.921875 C 13.492188 -18.835938 13.929688 -18.765625 14.359375 -18.703125 C 14.785156 -18.648438 15.207031 -18.582031 15.625 -18.5 C 17.050781 -18.164062 18.285156 -17.796875 19.328125 -17.390625 C 20.367188 -16.984375 21.273438 -16.492188 22.046875 -15.921875 Z M 22.046875 -15.921875 "/></g></g></g><g fill="#f6f6f6" fill-opacity="1"><g transform="translate(136.271187, 239.61458)"><g><path d="M 29.578125 -43.421875 L 47.71875 0 L 37.671875 0 L 33.75 -9.3125 L 15.3125 -9.3125 L 11.453125 0 L 1.34375 0 L 19.484375 -43.421875 Z M 30.25 -17.765625 L 24.5625 -31.421875 L 18.859375 -17.765625 Z M 30.25 -17.765625 "/></g></g></g><g fill="#f6f6f6" fill-opacity="1"><g transform="translate(184.111514, 239.61458)"><g><path d="M 33.375 -44.71875 L 33.375 0 L 26.15625 0 L 24.921875 -2.640625 C 23.984375 -1.648438 22.6875 -0.835938 21.03125 -0.203125 C 19.382812 0.421875 17.660156 0.734375 15.859375 0.734375 C 13.703125 0.734375 11.703125 0.316406 9.859375 -0.515625 C 8.023438 -1.359375 6.441406 -2.503906 5.109375 -3.953125 C 3.785156 -5.398438 2.742188 -7.09375 1.984375 -9.03125 C 1.234375 -10.96875 0.859375 -13.039062 0.859375 -15.25 C 0.859375 -17.457031 1.234375 -19.53125 1.984375 -21.46875 C 2.742188 -23.40625 3.785156 -25.097656 5.109375 -26.546875 C 6.441406 -27.992188 8.023438 -29.132812 9.859375 -29.96875 C 11.703125 -30.8125 13.703125 -31.234375 15.859375 -31.234375 C 17.785156 -31.234375 19.492188 -31.007812 20.984375 -30.5625 C 22.472656 -30.113281 23.785156 -29.359375 24.921875 -28.296875 L 24.921875 -44.71875 Z M 24.921875 -15.125 C 24.921875 -16.71875 24.71875 -18.054688 24.3125 -19.140625 C 23.90625 -20.222656 23.332031 -21.097656 22.59375 -21.765625 C 21.863281 -22.441406 21.019531 -22.929688 20.0625 -23.234375 C 19.101562 -23.546875 18.070312 -23.703125 16.96875 -23.703125 C 15.863281 -23.703125 14.832031 -23.476562 13.875 -23.03125 C 12.914062 -22.582031 12.078125 -21.976562 11.359375 -21.21875 C 10.648438 -20.46875 10.085938 -19.570312 9.671875 -18.53125 C 9.265625 -17.488281 9.0625 -16.394531 9.0625 -15.25 C 9.0625 -14.0625 9.265625 -12.957031 9.671875 -11.9375 C 10.085938 -10.914062 10.648438 -10.023438 11.359375 -9.265625 C 12.078125 -8.515625 12.914062 -7.914062 13.875 -7.46875 C 14.832031 -7.019531 15.863281 -6.796875 16.96875 -6.796875 C 19.175781 -6.796875 21.046875 -7.476562 22.578125 -8.84375 C 24.109375 -10.21875 24.890625 -12.3125 24.921875 -15.125 Z M 24.921875 -15.125 "/></g></g></g><g fill="#f6f6f6" fill-opacity="1"><g transform="translate(219.026986, 239.61458)"><g><path d="M 26.703125 -30.375 L 35.828125 -30.375 L 23.578125 0 L 12.671875 0 L 0.421875 -30.375 L 9.5 -30.375 L 18.125 -7.90625 Z M 26.703125 -30.375 "/></g></g></g><g fill="#f6f6f6" fill-opacity="1"><g transform="translate(254.187475, 239.61458)"><g><path d="M 11.9375 0 L 3.484375 0 L 3.484375 -30.375 L 11.9375 -30.375 Z M 7.71875 -34.546875 C 6.40625 -34.546875 5.300781 -34.992188 4.40625 -35.890625 C 3.507812 -36.785156 3.0625 -37.890625 3.0625 -39.203125 C 3.0625 -40.503906 3.507812 -41.613281 4.40625 -42.53125 C 5.300781 -43.457031 6.40625 -43.921875 7.71875 -43.921875 C 9.019531 -43.921875 10.117188 -43.457031 11.015625 -42.53125 C 11.921875 -41.613281 12.375 -40.503906 12.375 -39.203125 C 12.375 -37.890625 11.921875 -36.785156 11.015625 -35.890625 C 10.117188 -34.992188 9.019531 -34.546875 7.71875 -34.546875 Z M 7.71875 -34.546875 "/></g></g></g><g fill="#f6f6f6" fill-opacity="1"><g transform="translate(268.459939, 239.61458)"><g><path d="M 22.046875 -15.921875 C 24.296875 -14.328125 25.421875 -12.0625 25.421875 -9.125 C 25.421875 -7.78125 25.101562 -6.515625 24.46875 -5.328125 C 23.832031 -4.140625 22.960938 -3.097656 21.859375 -2.203125 C 20.765625 -1.304688 19.476562 -0.601562 18 -0.09375 C 16.53125 0.414062 14.960938 0.671875 13.296875 0.671875 C 12.023438 0.671875 10.785156 0.503906 9.578125 0.171875 C 8.378906 -0.148438 7.269531 -0.59375 6.25 -1.15625 C 5.226562 -1.726562 4.335938 -2.410156 3.578125 -3.203125 C 2.828125 -4.003906 2.269531 -4.894531 1.90625 -5.875 C 2.84375 -6.320312 3.878906 -6.820312 5.015625 -7.375 C 6.160156 -7.925781 7.164062 -8.425781 8.03125 -8.875 C 8.394531 -8.269531 8.960938 -7.710938 9.734375 -7.203125 C 10.515625 -6.691406 11.578125 -6.4375 12.921875 -6.4375 C 14.304688 -6.4375 15.328125 -6.757812 15.984375 -7.40625 C 16.640625 -8.0625 16.96875 -8.675781 16.96875 -9.25 C 16.96875 -9.65625 16.742188 -10.03125 16.296875 -10.375 C 15.847656 -10.726562 15.335938 -11.003906 14.765625 -11.203125 C 13.941406 -11.535156 13.265625 -11.710938 12.734375 -11.734375 C 12.203125 -11.753906 11.59375 -11.863281 10.90625 -12.0625 C 8.695312 -12.59375 7.007812 -13.296875 5.84375 -14.171875 C 4.6875 -15.054688 3.84375 -15.945312 3.3125 -16.84375 C 2.78125 -17.738281 2.484375 -18.59375 2.421875 -19.40625 C 2.359375 -20.226562 2.328125 -20.882812 2.328125 -21.375 C 2.328125 -22.6875 2.613281 -23.929688 3.1875 -25.109375 C 3.757812 -26.296875 4.546875 -27.328125 5.546875 -28.203125 C 6.546875 -29.078125 7.707031 -29.78125 9.03125 -30.3125 C 10.363281 -30.84375 11.785156 -31.109375 13.296875 -31.109375 C 14.554688 -31.109375 15.757812 -30.925781 16.90625 -30.5625 C 18.050781 -30.195312 19.09375 -29.6875 20.03125 -29.03125 C 20.96875 -28.375 21.769531 -27.597656 22.4375 -26.703125 C 23.113281 -25.804688 23.617188 -24.804688 23.953125 -23.703125 L 17.390625 -21.5 C 17.148438 -22.226562 16.648438 -22.816406 15.890625 -23.265625 C 15.140625 -23.722656 14.332031 -23.953125 13.46875 -23.953125 C 12.613281 -23.953125 11.921875 -23.664062 11.390625 -23.09375 C 10.859375 -22.519531 10.59375 -21.945312 10.59375 -21.375 C 10.59375 -20.675781 10.847656 -20.132812 11.359375 -19.75 C 11.867188 -19.363281 12.429688 -19.085938 13.046875 -18.921875 C 13.492188 -18.835938 13.929688 -18.765625 14.359375 -18.703125 C 14.785156 -18.648438 15.207031 -18.582031 15.625 -18.5 C 17.050781 -18.164062 18.285156 -17.796875 19.328125 -17.390625 C 20.367188 -16.984375 21.273438 -16.492188 22.046875 -15.921875 Z M 22.046875 -15.921875 "/></g></g></g><g fill="#f6f6f6" fill-opacity="1"><g transform="translate(294.370902, 239.61458)"><g><path d="M 17.703125 -31.234375 C 19.867188 -31.234375 21.910156 -30.8125 23.828125 -29.96875 C 25.742188 -29.132812 27.414062 -27.992188 28.84375 -26.546875 C 30.28125 -25.097656 31.414062 -23.40625 32.25 -21.46875 C 33.082031 -19.53125 33.5 -17.457031 33.5 -15.25 C 33.5 -13.039062 33.082031 -10.96875 32.25 -9.03125 C 31.414062 -7.09375 30.28125 -5.398438 28.84375 -3.953125 C 27.414062 -2.503906 25.742188 -1.359375 23.828125 -0.515625 C 21.910156 0.316406 19.867188 0.734375 17.703125 0.734375 C 15.492188 0.734375 13.429688 0.316406 11.515625 -0.515625 C 9.597656 -1.359375 7.921875 -2.503906 6.484375 -3.953125 C 5.054688 -5.398438 3.925781 -7.09375 3.09375 -9.03125 C 2.257812 -10.96875 1.84375 -13.039062 1.84375 -15.25 C 1.84375 -17.457031 2.257812 -19.53125 3.09375 -21.46875 C 3.925781 -23.40625 5.054688 -25.097656 6.484375 -26.546875 C 7.921875 -27.992188 9.597656 -29.132812 11.515625 -29.96875 C 13.429688 -30.8125 15.492188 -31.234375 17.703125 -31.234375 Z M 17.703125 -6.671875 C 18.722656 -6.671875 19.671875 -6.875 20.546875 -7.28125 C 21.421875 -7.695312 22.195312 -8.257812 22.875 -8.96875 C 23.550781 -9.6875 24.082031 -10.546875 24.46875 -11.546875 C 24.851562 -12.546875 25.046875 -13.660156 25.046875 -14.890625 C 25.046875 -16.109375 24.851562 -17.25 24.46875 -18.3125 C 24.082031 -19.375 23.550781 -20.300781 22.875 -21.09375 C 22.195312 -21.894531 21.421875 -22.53125 20.546875 -23 C 19.671875 -23.46875 18.722656 -23.703125 17.703125 -23.703125 C 16.679688 -23.703125 15.71875 -23.46875 14.8125 -23 C 13.914062 -22.53125 13.128906 -21.894531 12.453125 -21.09375 C 11.785156 -20.300781 11.257812 -19.375 10.875 -18.3125 C 10.488281 -17.25 10.296875 -16.109375 10.296875 -14.890625 C 10.296875 -13.660156 10.488281 -12.546875 10.875 -11.546875 C 11.257812 -10.546875 11.785156 -9.6875 12.453125 -8.96875 C 13.128906 -8.257812 13.914062 -7.695312 14.8125 -7.28125 C 15.71875 -6.875 16.679688 -6.671875 17.703125 -6.671875 Z M 17.703125 -6.671875 "/></g></g></g><g fill="#f6f6f6" fill-opacity="1"><g transform="translate(328.306287, 239.61458)"><g><path d="M 11.09375 -26.15625 C 11.5 -26.8125 11.96875 -27.429688 12.5 -28.015625 C 13.03125 -28.609375 13.660156 -29.140625 14.390625 -29.609375 C 15.128906 -30.078125 15.96875 -30.453125 16.90625 -30.734375 C 17.84375 -31.023438 18.90625 -31.171875 20.09375 -31.171875 C 21.476562 -31.171875 23.085938 -30.925781 24.921875 -30.4375 L 24.125 -22.90625 C 23.675781 -22.988281 23.226562 -23.09375 22.78125 -23.21875 C 22.414062 -23.300781 22.007812 -23.367188 21.5625 -23.421875 C 21.113281 -23.484375 20.703125 -23.515625 20.328125 -23.515625 C 19.023438 -23.515625 17.8125 -23.332031 16.6875 -22.96875 C 15.5625 -22.601562 14.59375 -22.09375 13.78125 -21.4375 C 12.96875 -20.78125 12.316406 -19.992188 11.828125 -19.078125 C 11.335938 -18.160156 11.09375 -17.171875 11.09375 -16.109375 L 11.09375 0 L 2.640625 0 L 2.640625 -30.375 L 10.296875 -30.375 Z M 11.09375 -26.15625 "/></g></g></g></svg>