<svg xmlns="http://www.w3.org/2000/svg" xmlns:xlink="http://www.w3.org/1999/xlink" width="500" zoomAndPan="magnify" viewBox="0 0 375 374.999991" height="500" preserveAspectRatio="xMidYMid meet" version="1.0"><defs><clipPath id="f22903564f"><path d="M 34 37.5 L 375 37.5 L 375 184 L 34 184 Z M 34 37.5 " clip-rule="nonzero"/></clipPath><clipPath id="90fcc6a8b3"><path d="M 0 183 L 341 183 L 341 329.25 L 0 329.25 Z M 0 183 " clip-rule="nonzero"/></clipPath></defs><g clip-path="url(#f22903564f)"><path fill="#d786f4" d="M 34.824219 183.265625 L 91.128906 183.265625 L 135.46875 127.191406 L 79.160156 127.191406 Z M 318.6875 37.492188 L 200.855469 183.265625 L 257.160156 183.265625 L 374.996094 37.492188 Z M 205.867188 74.121094 L 117.839844 183.265625 L 174.144531 183.265625 L 262.171875 74.121094 L 205.867188 74.121094 " fill-opacity="1" fill-rule="nonzero"/></g><g clip-path="url(#90fcc6a8b3)"><path fill="#4f4c4c" d="M 340.175781 183.269531 L 283.871094 183.269531 L 239.53125 239.34375 L 295.839844 239.34375 Z M 56.308594 329.042969 L 174.144531 183.269531 L 117.839844 183.269531 L 0.00390625 329.042969 Z M 169.136719 292.417969 L 257.160156 183.269531 L 200.855469 183.269531 L 112.828125 292.417969 L 169.136719 292.417969 " fill-opacity="1" fill-rule="nonzero"/></g></svg>